# xmcd
#
# Track frame offsets: 
#        150
#        17659
#        32933
#        51565
#        70553
#        87563
#        102879
#        120049
#        136830
#        155536
#        177897
#        196771
#
# Disc length: 2890 seconds
#
# Revision: 0
# Processed by: cddbd v1.5.2PL0 Copyright (c) Steve Scherf et al.
# Submitted via: ExactAudioCopyFreeDBPlugin 1.0
#
DISCID=950b480c
DTITLE=Kurt Nilsen - Amazing
DYEAR=2017
DGENRE=Country
TTITLE0=I'm HIT
TTITLE1=Going All In
TTITLE2=Amazing
TTITLE3=Remember Me
TTITLE4=The Power
TTITLE5=Fly Away
TTITLE6=Horizon
TTITLE7=Careful With My Heart
TTITLE8=What's On The Other Side
TTITLE9=Take Me Home
TTITLE10=If I Go Blind
TTITLE11=Never Stopped Dreaming
EXTD=
EXTT0=
EXTT1=
EXTT2=
EXTT3=
EXTT4=
EXTT5=
EXTT6=
EXTT7=
EXTT8=
EXTT9=
EXTT10=
EXTT11=
PLAYORDER=
